<svg width="200" height="200" viewBox="0 0 200 200" fill="none" xmlns="http://www.w3.org/2000/svg">
<g clip-path="url(#clip0_2496_1594)">
<rect width="200" height="200" rx="100" fill="url(#paint0_linear_2496_1594)"/>
<path d="M80.6641 44.4443L136.886 150L155.553 114.667L117.886 44.4443H80.6641Z" fill="#DB4533"/>
<path d="M80.6641 116.667L99.9974 150H138.775L119.331 116.667H80.6641Z" fill="#A12E2A"/>
<path d="M63.7777 77.7778L44.4443 113.889L63.7777 150L102.889 77.7778H63.7777Z" fill="#DB4533"/>
<g opacity="0.5" style="mix-blend-mode:plus-lighter">
<path fill-rule="evenodd" clip-rule="evenodd" d="M100 0C155.228 0 200 44.7715 200 100C200 155.228 155.228 200 100 200C44.7715 200 0 155.228 0 100C0 44.7715 44.7715 0 100 0ZM100 5C47.5329 5 5 47.5329 5 100C5 152.467 47.5329 195 100 195C152.467 195 195 152.467 195 100C195 47.5329 152.467 5 100 5Z" fill="url(#paint1_linear_2496_1594)" style="mix-blend-mode:screen"/>
</g>
</g>
<defs>
<linearGradient id="paint0_linear_2496_1594" x1="37.2222" y1="34.6667" x2="243.333" y2="271.444" gradientUnits="userSpaceOnUse">
<stop stop-color="#1A1E21"/>
<stop offset="1" stop-color="#06060A"/>
</linearGradient>
<linearGradient id="paint1_linear_2496_1594" x1="-64.7059" y1="17.6829" x2="-43.3322" y2="215.444" gradientUnits="userSpaceOnUse">
<stop stop-color="white" stop-opacity="0.4"/>
<stop offset="0.368352" stop-color="white" stop-opacity="0.01"/>
<stop offset="0.574372" stop-color="white" stop-opacity="0.01"/>
<stop offset="1" stop-color="white" stop-opacity="0.1"/>
</linearGradient>
<clipPath id="clip0_2496_1594">
<rect width="200" height="200" rx="100" fill="white"/>
</clipPath>
</defs>
</svg>
