<svg width="200" height="200" viewBox="0 0 200 200" fill="none" xmlns="http://www.w3.org/2000/svg">
<g clip-path="url(#clip0_2229_3938)">
<rect width="200" height="200" rx="100" fill="url(#paint0_linear_2229_3938)"/>
<g opacity="0.7" style="mix-blend-mode:plus-lighter">
<path fill-rule="evenodd" clip-rule="evenodd" d="M100 0C155.228 0 200 44.7715 200 100C200 155.228 155.228 200 100 200C44.7715 200 0 155.228 0 100C0 44.7715 44.7715 0 100 0ZM100 5C47.5329 5 5 47.5329 5 100C5 152.467 47.5329 195 100 195C152.467 195 195 152.467 195 100C195 47.5329 152.467 5 100 5Z" fill="url(#paint1_linear_2229_3938)" style="mix-blend-mode:screen"/>
</g>
<path d="M137.797 106.153C138.905 108.103 139.968 110.078 140.982 112.078L141.26 112.696C142.734 115.978 143.478 119.541 143.442 123.139C143.407 126.727 142.596 130.264 141.065 133.509C139.928 135.609 138.326 137.377 136.39 138.712L136.382 138.718L105.063 160.751L137.797 106.153ZM47.4873 80.4203C47.5247 80.8903 47.5774 81.3593 47.6475 81.8265L47.6484 81.8324C48.3215 86.1649 49.763 90.3424 51.9062 94.1674L51.9111 94.1742L51.915 94.182C62.1947 111.827 73.4192 129.495 82.0713 142.747C86.3979 149.375 90.0824 154.9 92.6855 158.769C93.059 159.324 93.4126 159.843 93.7402 160.328L59.2686 136.125C54.8382 132.696 51.1829 128.368 48.5439 123.426C46.3363 119.292 44.8843 114.805 44.2422 110.177L43.9893 107.443C43.5306 102.503 43.4594 97.572 43.8799 92.6469C44.4913 88.4209 45.7208 84.3095 47.4873 80.4203ZM140.146 63.8734C144.576 67.3027 148.232 71.631 150.871 76.5736C153.079 80.7077 154.53 85.1939 155.172 89.8217L155.426 92.557C155.884 97.4946 155.954 102.424 155.534 107.347C154.889 111.587 153.682 115.702 151.893 119.589C151.855 119.114 151.803 118.641 151.732 118.172L151.731 118.17C151.071 113.839 149.639 109.653 147.51 105.834L147.505 105.827L147.5 105.818C137.22 88.1725 125.996 70.5052 117.344 57.2523C113.017 50.6251 109.333 45.0995 106.729 41.2308C106.356 40.6754 106.002 40.1558 105.674 39.6703L140.146 63.8734ZM61.6221 93.8412C61.3686 93.3943 61.072 92.8733 60.7598 92.3129C60.0114 90.9694 59.1719 89.4253 58.5449 88.1761L58.1562 87.306C56.6877 84.0212 55.9487 80.4567 55.9902 76.8588C56.0317 73.2673 56.8491 69.7271 58.3877 66.4818C59.4876 64.4247 61.0864 62.6619 63.0547 61.3275L63.0615 61.3226L63.0693 61.3177L94.3789 39.2572L61.6221 93.8412Z" fill="url(#paint2_linear_2229_3938)"/>
<path d="M137.797 106.153C138.905 108.103 139.968 110.078 140.982 112.078L141.26 112.696C142.734 115.978 143.478 119.541 143.442 123.139C143.407 126.727 142.596 130.264 141.065 133.509C139.928 135.609 138.326 137.377 136.39 138.712L136.382 138.718L105.063 160.751L137.797 106.153ZM47.4873 80.4203C47.5247 80.8903 47.5774 81.3593 47.6475 81.8265L47.6484 81.8324C48.3215 86.1649 49.763 90.3424 51.9062 94.1674L51.9111 94.1742L51.915 94.182C62.1947 111.827 73.4192 129.495 82.0713 142.747C86.3979 149.375 90.0824 154.9 92.6855 158.769C93.059 159.324 93.4126 159.843 93.7402 160.328L59.2686 136.125C54.8382 132.696 51.1829 128.368 48.5439 123.426C46.3363 119.292 44.8843 114.805 44.2422 110.177L43.9893 107.443C43.5306 102.503 43.4594 97.572 43.8799 92.6469C44.4913 88.4209 45.7208 84.3095 47.4873 80.4203ZM140.146 63.8734C144.576 67.3027 148.232 71.631 150.871 76.5736C153.079 80.7077 154.53 85.1939 155.172 89.8217L155.426 92.557C155.884 97.4946 155.954 102.424 155.534 107.347C154.889 111.587 153.682 115.702 151.893 119.589C151.855 119.114 151.803 118.641 151.732 118.172L151.731 118.17C151.071 113.839 149.639 109.653 147.51 105.834L147.505 105.827L147.5 105.818C137.22 88.1725 125.996 70.5052 117.344 57.2523C113.017 50.6251 109.333 45.0995 106.729 41.2308C106.356 40.6754 106.002 40.1558 105.674 39.6703L140.146 63.8734ZM61.6221 93.8412C61.3686 93.3943 61.072 92.8733 60.7598 92.3129C60.0114 90.9694 59.1719 89.4253 58.5449 88.1761L58.1562 87.306C56.6877 84.0212 55.9487 80.4567 55.9902 76.8588C56.0317 73.2673 56.8491 69.7271 58.3877 66.4818C59.4876 64.4247 61.0864 62.6619 63.0547 61.3275L63.0615 61.3226L63.0693 61.3177L94.3789 39.2572L61.6221 93.8412Z" stroke="url(#paint3_linear_2229_3938)" style="mix-blend-mode:plus-lighter" stroke-width="2"/>
</g>
<defs>
<linearGradient id="paint0_linear_2229_3938" x1="41.0714" y1="21.4286" x2="175" y2="200" gradientUnits="userSpaceOnUse">
<stop stop-color="#7C97FA"/>
<stop offset="1" stop-color="#53B1EF"/>
</linearGradient>
<linearGradient id="paint1_linear_2229_3938" x1="-64.7059" y1="17.6829" x2="-43.3322" y2="215.444" gradientUnits="userSpaceOnUse">
<stop stop-color="white" stop-opacity="0.4"/>
<stop offset="0.368352" stop-color="white" stop-opacity="0.01"/>
<stop offset="0.574372" stop-color="white" stop-opacity="0.01"/>
<stop offset="1" stop-color="white" stop-opacity="0.1"/>
</linearGradient>
<linearGradient id="paint2_linear_2229_3938" x1="99.7076" y1="35.7142" x2="99.7076" y2="164.286" gradientUnits="userSpaceOnUse">
<stop stop-color="white"/>
<stop offset="1" stop-color="white" stop-opacity="0.8"/>
</linearGradient>
<linearGradient id="paint3_linear_2229_3938" x1="5.65061" y1="47.0818" x2="21.0707" y2="173.823" gradientUnits="userSpaceOnUse">
<stop stop-color="white"/>
<stop offset="0.21564" stop-color="white" stop-opacity="0.01"/>
<stop offset="0.455086" stop-color="white" stop-opacity="0.01"/>
<stop offset="0.532842" stop-color="white" stop-opacity="0.01"/>
<stop offset="1" stop-color="white"/>
</linearGradient>
<clipPath id="clip0_2229_3938">
<rect width="200" height="200" rx="100" fill="white"/>
</clipPath>
</defs>
</svg>
