<svg width="200" height="200" viewBox="0 0 200 200" fill="none" xmlns="http://www.w3.org/2000/svg">
<rect width="200" height="200" rx="100" fill="#1552EF"/>
<path fill-rule="evenodd" clip-rule="evenodd" d="M100 0C155.228 0 200 44.7715 200 100C200 155.228 155.228 200 100 200C44.7715 200 0 155.228 0 100C0 44.7715 44.7715 0 100 0ZM100 5C47.5329 5 5 47.5329 5 100C5 152.467 47.5329 195 100 195C152.467 195 195 152.467 195 100C195 47.5329 152.467 5 100 5Z" fill="url(#paint0_linear_343_2555)" style="mix-blend-mode:screen"/>
<path d="M91.0023 55.5555H143.669C144.113 55.5555 144.447 56 144.447 56.4444C144.447 57 144.113 57.5555 143.669 57.5555H91.0023C90.5579 57.5555 90.1134 57 90.1134 56.4444C90.1134 56 90.5579 55.5555 91.0023 55.5555ZM88.4468 63C88.0023 62.7778 87.669 63 87.4468 63.3333L82.5579 76.3333C82.3356 76.7778 82.5579 77.2222 82.8912 77.4444C83.3357 77.6666 83.7801 77.4444 84.0023 77L88.8912 64.1111C89.0023 63.6667 88.8912 63.1111 88.4468 63ZM142.225 62.7778H142.336C142.78 63 142.891 63.4444 142.78 63.8889L137.669 77.2222C137.558 77.5555 137.113 77.7778 136.78 77.5555C136.336 77.3333 136.113 76.8889 136.336 76.4444L141.336 63.1111C141.447 62.7778 141.891 62.5555 142.225 62.7778ZM135.113 77.4444H99.669C99.3357 77.4444 99.0023 77.8889 99.0023 78.3333C99.0023 78.7778 99.3357 79.2222 99.669 79.2222L135.225 79.1111C135.558 79.1111 135.891 78.7778 135.891 78.3333C135.891 77.7778 135.558 77.4444 135.113 77.4444ZM79.5579 84.6667C79.1134 84.4444 78.669 84.6667 78.4468 85L73.5579 98.1111C73.3356 98.4444 73.5579 99 73.8912 99.2222C74.3357 99.4444 74.7801 99.2222 75.0023 98.7778L79.8912 85.7778C80.1134 85.3333 79.8912 84.7778 79.5579 84.6667ZM97.4468 84.4444C97.8912 84.7778 98.0023 85.2222 97.8912 85.6667L92.8912 99C92.7801 99.4444 92.3357 99.5555 91.8912 99.4444C91.4468 99.2222 91.2245 98.6667 91.4468 98.2222L96.4468 84.8889C96.5579 84.5555 97.0023 84.3333 97.4468 84.5555V84.4444ZM70.5579 106.333C70.1134 106.111 69.7801 106.333 69.5579 106.667L64.669 119.667C64.4468 120.111 64.669 120.556 65.0023 120.778C65.4468 121 65.8912 120.778 66.1134 120.333L71.0023 107.444C71.1134 107 71.0023 106.556 70.5579 106.333ZM106.447 106.333C106.891 106.556 107.002 107 106.891 107.444L101.891 120.444C101.78 120.889 101.336 121.111 100.891 120.889C100.447 120.667 100.336 120.222 100.447 119.778L105.558 106.667C105.669 106.222 106.113 106 106.558 106.222L106.447 106.333ZM98.669 120.667H82.0023C81.4468 120.667 81.0023 121.111 81.0023 121.778C81.0023 122.333 81.4468 122.778 81.8912 122.778H98.669C99.2245 122.778 99.5579 122.333 99.5579 121.778C99.5579 121.111 99.2245 120.667 98.669 120.667ZM61.4468 128.111H61.669C62.0023 128.333 62.1134 128.778 62.0023 129.222L57.0023 142.222C56.8912 142.667 56.4468 142.778 56.2245 142.667L55.8912 142.444C55.669 142.444 55.4468 141.889 55.5579 141.556L60.5579 128.444C60.7801 128.111 61.1134 127.889 61.4468 128.111ZM72.669 142.556C73.0023 142.556 73.3357 142.444 73.4468 142L78.4468 128.667C78.4468 128.444 78.669 128.333 79.0023 128.333H79.669C80.0023 128.333 80.1134 128.444 80.0023 128.889L75.5579 140.778C75.2245 141.889 74.4468 142.667 73.3356 142.778C73.1134 142.778 72.8912 143 72.7801 143.333L72.669 143.778C72.4468 144.222 72.1134 144.444 71.669 144.444H63.4468C63.0023 144.444 62.8912 144.111 63.1134 143.667L63.2245 143.111C63.4468 142.778 63.669 142.556 64.1134 142.556H72.669Z" fill="white"/>
<defs>
<linearGradient id="paint0_linear_343_2555" x1="-64.7059" y1="17.6829" x2="-43.3322" y2="215.444" gradientUnits="userSpaceOnUse">
<stop stop-color="white" stop-opacity="0.4"/>
<stop offset="0.368352" stop-color="white" stop-opacity="0.01"/>
<stop offset="0.574372" stop-color="white" stop-opacity="0.01"/>
<stop offset="1" stop-color="white" stop-opacity="0.1"/>
</linearGradient>
</defs>
</svg>
