<svg width="200" height="200" viewBox="0 0 200 200" fill="none" xmlns="http://www.w3.org/2000/svg">
<g clip-path="url(#clip0_2497_1873)">
<path d="M0 0H200V200H0V0Z" fill="url(#paint0_linear_2497_1873)"/>
<path fill-rule="evenodd" clip-rule="evenodd" d="M166.668 99.8881C166.726 108.656 165.037 117.348 161.698 125.456C158.359 133.564 153.439 140.925 147.223 147.11C137.947 156.513 126.063 162.916 113.108 165.491C100.153 168.066 86.7238 166.695 74.5567 161.555C66.4612 158.262 59.1003 153.393 52.9013 147.232C46.7024 141.072 41.7887 133.741 38.4456 125.666C33.2827 113.493 31.8887 100.051 34.4438 87.0774C36.9989 74.1039 43.3857 62.1945 52.7789 52.8881C62.0553 43.4857 73.9395 37.0828 86.8943 34.5077C99.8491 31.9326 113.279 33.3037 125.446 38.4437C133.541 41.7369 140.902 46.6052 147.101 52.766C153.3 58.9269 158.214 66.2575 161.557 74.3326C164.89 82.5548 166.668 90.9992 166.668 99.8881ZM155.557 99.1104C155.813 110.113 152.763 120.939 146.801 130.19C140.839 139.44 132.239 146.689 122.112 150.999C112.034 155.447 100.852 156.766 90.0157 154.784C79.1793 152.803 69.1874 147.614 61.3345 139.888C53.3945 132.277 47.9135 122.464 45.5967 111.712C43.28 100.96 44.2335 89.7605 48.3345 79.5548C52.3139 69.2937 59.2802 60.4624 68.3326 54.203C77.3849 47.9436 88.107 44.544 99.1123 44.4437C110.115 44.1871 120.941 47.2371 130.191 53.1993C139.442 59.1616 146.691 67.7619 151.001 77.8881C153.89 84.6659 155.446 91.777 155.446 99.1104H155.557ZM80.3345 75.777C82.0012 77.4437 84.2234 78.3326 86.7789 78.6659C89.2234 78.8881 91.5567 78.6659 93.7789 77.5548C95.2234 76.8881 97.1123 75.5548 99.1123 73.4437L106.112 66.2215C108.779 63.4437 110.89 61.777 112.557 61.4437C114.036 61.0796 115.577 61.0401 117.073 61.3278C118.569 61.6155 119.985 62.2236 121.223 63.1104C121.668 63.4437 121.668 63.777 121.334 64.2215L120.112 65.777L104.001 81.777C98.89 86.8881 92.5567 88.9992 85.1123 87.8881C80.89 87.3326 77.3345 85.6659 74.5567 83.2215C72.0012 80.9992 69.4456 78.4437 66.7789 75.6659C66.4456 75.2215 66.4456 74.8881 66.7789 74.5548L72.5567 68.8881C72.89 68.5548 73.6678 68.9992 74.7789 70.2215L80.3345 75.777ZM124.112 80.4437C122.263 82.4072 121.143 84.9461 120.941 87.6359C120.739 90.3257 121.466 93.0034 123.001 95.2215C125.905 98.9881 129.222 102.417 132.89 105.444C136.446 108.777 138.446 111.666 138.779 113.999C138.975 115.414 138.836 116.855 138.373 118.206C137.91 119.557 137.135 120.78 136.112 121.777H135.668C130.668 116.777 125.112 111.11 118.89 105.11C115.195 101.719 112.668 97.2469 111.668 92.3326C110.779 87.4437 111.668 82.6659 114.223 77.9992C115.334 76.1104 117.557 73.5548 120.779 70.2215L123.779 67.2215C124.223 66.777 124.668 66.777 125.223 67.2215L130.89 72.9992C131.112 73.2215 131.112 73.4437 130.89 73.5548C128.112 76.2215 125.89 78.4437 124.112 80.4437ZM78.89 114.11C78.4456 116.333 77.3345 118.555 75.4456 120.555C73.4456 122.777 71.2234 124.777 69.0012 126.888C68.7789 127.11 68.7789 127.444 69.0012 127.666L74.89 133.444C75.1123 133.777 75.4456 133.777 75.7789 133.444C78.6701 130.74 81.4148 127.884 84.0012 124.888C86.4703 121.66 87.9871 117.806 88.3798 113.761C88.7725 109.716 88.0255 105.642 86.2234 101.999C85.2234 100.11 82.89 97.2215 79.0012 93.4437L64.5567 78.8881C64.1123 78.4437 63.7789 78.4437 63.4456 78.8881C59.89 83.777 60.3345 88.3326 64.89 92.4437L73.6678 101.11C75.89 103.444 77.4456 105.333 78.1123 106.666C79.2234 109.11 79.4456 111.555 79.0012 113.999L78.89 114.11ZM132.668 125.221L127.112 130.666C126.779 131.11 126.223 131.11 125.779 130.666L119.334 124.333C118.261 123.287 116.972 122.491 115.557 121.999C113.785 121.356 111.894 121.102 110.015 121.256C108.136 121.409 106.312 121.966 104.668 122.888C103.557 123.444 101.334 125.555 97.6678 129.333L93.2234 133.777C91.0012 135.999 89.4456 137.333 88.4456 137.888C85.0012 139.555 81.4456 139.11 77.89 136.555C77.5567 136.221 77.5567 135.999 77.89 135.666L95.4456 118.11C98.5567 114.999 102.112 112.999 106.223 112.221C114.112 110.666 121.001 112.666 126.557 118.333L132.668 124.333C132.89 124.555 132.89 124.888 132.668 125.11V125.221Z" fill="white"/>
<g opacity="0.7" style="mix-blend-mode:plus-lighter">
<path fill-rule="evenodd" clip-rule="evenodd" d="M100 0C155.228 0 200 44.7715 200 100C200 155.228 155.228 200 100 200C44.7715 200 0 155.228 0 100C0 44.7715 44.7715 0 100 0ZM100 5C47.5329 5 5 47.5329 5 100C5 152.467 47.5329 195 100 195C152.467 195 195 152.467 195 100C195 47.5329 152.467 5 100 5Z" fill="url(#paint1_linear_2497_1873)" style="mix-blend-mode:screen"/>
</g>
</g>
<defs>
<linearGradient id="paint0_linear_2497_1873" x1="37.2222" y1="34.6667" x2="243.333" y2="271.444" gradientUnits="userSpaceOnUse">
<stop stop-color="#1A1E21"/>
<stop offset="1" stop-color="#06060A"/>
</linearGradient>
<linearGradient id="paint1_linear_2497_1873" x1="-64.7059" y1="17.6829" x2="-43.3322" y2="215.444" gradientUnits="userSpaceOnUse">
<stop stop-color="white" stop-opacity="0.4"/>
<stop offset="0.368352" stop-color="white" stop-opacity="0.01"/>
<stop offset="0.574372" stop-color="white" stop-opacity="0.01"/>
<stop offset="1" stop-color="white" stop-opacity="0.1"/>
</linearGradient>
<clipPath id="clip0_2497_1873">
<rect width="200" height="200" rx="100" fill="white"/>
</clipPath>
</defs>
</svg>
