<svg width="200" height="200" viewBox="0 0 200 200" fill="none" xmlns="http://www.w3.org/2000/svg">
<g clip-path="url(#clip0_2093_89)">
<rect width="200" height="200" rx="100" fill="#005388"/>
<g opacity="0.7" style="mix-blend-mode:plus-lighter">
<path fill-rule="evenodd" clip-rule="evenodd" d="M100 0C155.228 0 200 44.7715 200 100C200 155.228 155.228 200 100 200C44.7715 200 0 155.228 0 100C0 44.7715 44.7715 0 100 0ZM100 5C47.5329 5 5 47.5329 5 100C5 152.467 47.5329 195 100 195C152.467 195 195 152.467 195 100C195 47.5329 152.467 5 100 5Z" fill="url(#paint0_linear_2093_89)" style="mix-blend-mode:screen"/>
</g>
<path d="M154.164 136.089L80.3281 86.6831C79.8837 86.3857 79.2839 86.4908 78.9668 86.9214C78.6497 87.3521 78.7275 87.9564 79.1436 88.2925L127.342 127.221L80.3213 96.3071C79.8779 96.0156 79.2836 96.121 78.9678 96.5474C78.652 96.9739 78.7245 97.5736 79.1328 97.9126L117.408 129.692L80.3115 105.925C79.8703 105.643 79.2848 105.749 78.9707 106.168C78.6568 106.588 78.7198 107.179 79.1152 107.523L107.487 132.181L80.293 115.55C79.8568 115.284 79.2898 115.389 78.9785 115.794C78.6671 116.2 78.7123 116.776 79.083 117.128L101.34 138.286H44.5801L100 41.3003L154.164 136.089Z" fill="url(#paint1_linear_2093_89)"/>
<path d="M154.164 136.089L80.3281 86.6831C79.8837 86.3857 79.2839 86.4908 78.9668 86.9214C78.6497 87.3521 78.7275 87.9564 79.1436 88.2925L127.342 127.221L80.3213 96.3071C79.8779 96.0156 79.2836 96.121 78.9678 96.5474C78.652 96.9739 78.7245 97.5736 79.1328 97.9126L117.408 129.692L80.3115 105.925C79.8703 105.643 79.2848 105.749 78.9707 106.168C78.6568 106.588 78.7198 107.179 79.1152 107.523L107.487 132.181L80.293 115.55C79.8568 115.284 79.2898 115.389 78.9785 115.794C78.6671 116.2 78.7123 116.776 79.083 117.128L101.34 138.286H44.5801L100 41.3003L154.164 136.089Z" stroke="url(#paint2_linear_2093_89)" style="mix-blend-mode:plus-lighter" stroke-width="2" stroke-linejoin="round"/>
</g>
<defs>
<linearGradient id="paint0_linear_2093_89" x1="-64.7059" y1="17.6829" x2="-43.3322" y2="215.444" gradientUnits="userSpaceOnUse">
<stop stop-color="white" stop-opacity="0.4"/>
<stop offset="0.368352" stop-color="white" stop-opacity="0.01"/>
<stop offset="0.574372" stop-color="white" stop-opacity="0.01"/>
<stop offset="1" stop-color="white" stop-opacity="0.1"/>
</linearGradient>
<linearGradient id="paint1_linear_2093_89" x1="100" y1="39.2856" x2="100" y2="139.286" gradientUnits="userSpaceOnUse">
<stop stop-color="white"/>
<stop offset="1" stop-color="white" stop-opacity="0.8"/>
</linearGradient>
<linearGradient id="paint2_linear_2093_89" x1="5.88263" y1="48.1271" x2="15.259" y2="147.276" gradientUnits="userSpaceOnUse">
<stop stop-color="white"/>
<stop offset="0.21564" stop-color="white" stop-opacity="0.01"/>
<stop offset="0.455086" stop-color="white" stop-opacity="0.01"/>
<stop offset="0.532842" stop-color="white" stop-opacity="0.01"/>
<stop offset="1" stop-color="white"/>
</linearGradient>
<clipPath id="clip0_2093_89">
<rect width="200" height="200" rx="100" fill="white"/>
</clipPath>
</defs>
</svg>
